<svg width="2649" height="645" viewBox="0 0 2649 645" fill="none" xmlns="http://www.w3.org/2000/svg">
<path d="M28.8948 31.2402C29.5821 30.3438 30.4025 29.6571 31.361 29.0594C39.5152 23.9745 88.4368 0 286 0C450.418 0 511.886 16.605 532.583 25.1075C539.145 27.8032 544.074 32.9692 546.691 39.5631C555.129 60.829 572 123.646 572 286C572 448.32 555.136 511.145 546.696 532.424C544.077 539.027 539.783 544.997 533.368 548.049C514.951 556.812 458.192 572 286 572C140.914 572 77.7791 561.217 50.4803 552.58C35.8147 547.941 24.7289 535.717 20.1477 521.033C11.4023 493.002 0 429.029 0 286C0 80.7589 23.4787 38.3034 28.8948 31.2402Z" fill="#0067B8"/>
<path fill-rule="evenodd" clip-rule="evenodd" d="M290.816 0.00478363C289.22 0.00160217 287.615 0 286 0C256.567 0 230.433 0.53212 207.242 1.45461L239.6 265.705L0.0154266 295.043C0.124329 326.739 0.804962 354.412 1.89304 378.565L249.705 348.219L277.106 571.986C280.036 571.995 283 572 286 572C313.811 572 338.611 571.604 360.725 570.902L332.219 338.114L571.885 308.766C571.961 301.404 572 293.817 572 286C572 263.908 571.688 243.66 571.127 225.108L322.114 255.6L290.816 0.00478363Z" fill="white"/>
<path d="M735.808 522.439C735.808 538.553 729.989 551.248 718.352 560.525C706.796 569.803 690.682 574.441 670.012 574.441C650.969 574.441 634.123 570.861 619.475 563.699V528.543C631.519 533.914 641.691 537.698 649.992 539.896C658.374 542.093 666.024 543.191 672.941 543.191C681.242 543.191 687.59 541.604 691.984 538.431C696.46 535.257 698.698 530.537 698.698 524.271C698.698 520.771 697.722 517.679 695.769 514.993C693.815 512.226 690.926 509.581 687.102 507.059C683.358 504.536 675.668 500.507 664.03 494.974C653.125 489.847 644.947 484.923 639.494 480.203C634.042 475.483 629.688 469.99 626.433 463.724C623.177 457.457 621.55 450.133 621.55 441.751C621.55 425.963 626.88 413.553 637.541 404.52C648.283 395.486 663.094 390.97 681.975 390.97C691.252 390.97 700.082 392.068 708.464 394.266C716.927 396.463 725.757 399.555 734.953 403.543L722.746 432.962C713.225 429.056 705.331 426.329 699.064 424.783C692.88 423.237 686.776 422.464 680.754 422.464C673.592 422.464 668.099 424.132 664.274 427.469C660.45 430.805 658.537 435.159 658.537 440.53C658.537 443.867 659.31 446.797 660.856 449.319C662.403 451.761 664.844 454.161 668.181 456.521C671.599 458.8 679.615 462.951 692.229 468.973C708.911 476.948 720.345 484.964 726.53 493.021C732.715 500.996 735.808 510.802 735.808 522.439ZM763.64 400.247C763.64 388.121 770.394 382.059 783.903 382.059C797.412 382.059 804.167 388.121 804.167 400.247C804.167 406.025 802.458 410.542 799.04 413.797C795.703 416.971 790.658 418.558 783.903 418.558C770.394 418.558 763.64 412.454 763.64 400.247ZM802.458 572H765.227V435.525H802.458V572ZM963.835 572H926.604V492.288C926.604 482.441 924.935 475.076 921.599 470.193C918.343 465.229 913.176 462.747 906.096 462.747C896.574 462.747 889.657 466.246 885.344 473.245C881.031 480.244 878.874 491.759 878.874 507.791V572H841.643V435.525H870.085L875.09 452.981H877.165C880.827 446.715 886.117 441.832 893.034 438.333C899.951 434.752 907.886 432.962 916.838 432.962C937.264 432.962 951.099 439.635 958.342 452.981H961.638C965.3 446.634 970.671 441.71 977.751 438.211C984.912 434.712 992.969 432.962 1001.92 432.962C1017.38 432.962 1029.06 436.95 1036.96 444.925C1044.93 452.819 1048.92 465.514 1048.92 483.011V572H1011.56V492.288C1011.56 482.441 1009.9 475.076 1006.56 470.193C1003.3 465.229 998.137 462.747 991.057 462.747C981.942 462.747 975.106 466.002 970.549 472.513C966.073 479.023 963.835 489.358 963.835 503.519V572ZM1162.2 574.441C1146.17 574.441 1133.59 568.623 1124.48 556.985H1122.53C1123.83 568.379 1124.48 574.97 1124.48 576.761V632.059H1087.25V435.525H1117.52L1122.77 453.226H1124.48C1133.19 439.716 1146.09 432.962 1163.18 432.962C1179.29 432.962 1191.9 439.188 1201.02 451.639C1210.13 464.09 1214.69 481.383 1214.69 503.519C1214.69 518.086 1212.53 530.74 1208.22 541.482C1203.99 552.225 1197.93 560.403 1190.03 566.019C1182.14 571.634 1172.86 574.441 1162.2 574.441ZM1151.21 462.747C1142.02 462.747 1135.3 465.595 1131.07 471.292C1126.84 476.907 1124.64 486.225 1124.48 499.246V503.274C1124.48 517.923 1126.64 528.421 1130.95 534.769C1135.34 541.116 1142.26 544.29 1151.7 544.29C1168.38 544.29 1176.73 530.537 1176.73 503.03C1176.73 489.603 1174.65 479.552 1170.5 472.879C1166.43 466.124 1160 462.747 1151.21 462.747ZM1282.68 572H1245.45V382.059H1282.68V572ZM1302.34 435.525H1343.11L1368.86 512.308C1371.06 518.981 1372.57 526.875 1373.38 535.989H1374.11C1375.01 527.607 1376.76 519.713 1379.36 512.308L1404.63 435.525H1444.55L1386.81 589.456C1381.52 603.698 1373.95 614.358 1364.1 621.438C1354.34 628.519 1342.9 632.059 1329.8 632.059C1323.37 632.059 1317.07 631.367 1310.88 629.983V600.442C1315.36 601.5 1320.24 602.029 1325.53 602.029C1332.12 602.029 1337.86 599.995 1342.74 595.926C1347.71 591.938 1351.57 585.875 1354.34 577.737L1356.54 571.023L1302.34 435.525ZM1640.96 572H1597.87L1573.7 478.25C1572.8 474.913 1571.26 468.037 1569.06 457.62C1566.94 447.122 1565.72 440.083 1565.4 436.502C1564.91 440.896 1563.69 447.977 1561.74 457.742C1559.78 467.426 1558.28 474.344 1557.22 478.494L1533.17 572H1490.2L1444.67 393.533H1481.9L1504.73 490.945C1508.72 508.93 1511.61 524.515 1513.4 537.698C1513.88 533.06 1514.98 525.898 1516.69 516.214C1518.48 506.448 1520.15 498.88 1521.7 493.509L1547.7 393.533H1583.46L1609.46 493.509C1610.6 497.985 1612.03 504.821 1613.74 514.017C1615.45 523.213 1616.75 531.106 1617.64 537.698C1618.46 531.351 1619.76 523.457 1621.55 514.017C1623.34 504.495 1624.97 496.805 1626.43 490.945L1649.14 393.533H1686.37L1640.96 572ZM1784.64 422.464C1770.39 422.464 1759.37 427.835 1751.55 438.577C1743.74 449.238 1739.84 464.131 1739.84 483.255C1739.84 523.05 1754.77 542.947 1784.64 542.947C1797.17 542.947 1812.35 539.814 1830.17 533.548V565.286C1815.52 571.39 1799.16 574.441 1781.1 574.441C1755.14 574.441 1735.28 566.588 1721.53 550.882C1707.77 535.094 1700.9 512.47 1700.9 483.011C1700.9 464.456 1704.27 448.221 1711.03 434.305C1717.78 420.307 1727.47 409.606 1740.08 402.2C1752.78 394.713 1767.63 390.97 1784.64 390.97C1801.97 390.97 1819.39 395.161 1836.88 403.543L1824.67 434.305C1818 431.131 1811.29 428.364 1804.53 426.004C1797.78 423.644 1791.15 422.464 1784.64 422.464ZM1977.51 572L1964.57 529.52H1899.5L1886.56 572H1845.79L1908.78 392.801H1955.05L2018.28 572H1977.51ZM1955.53 497.781C1943.57 459.288 1936.82 437.519 1935.27 432.474C1933.81 427.428 1932.75 423.44 1932.1 420.511C1929.41 430.927 1921.72 456.684 1909.03 497.781H1955.53ZM2108.61 471.78H2179.41V564.31C2167.94 568.053 2157.11 570.657 2146.94 572.122C2136.85 573.668 2126.51 574.441 2115.93 574.441C2089 574.441 2068.41 566.548 2054.17 550.76C2040.01 534.891 2032.93 512.145 2032.93 482.522C2032.93 453.714 2041.15 431.253 2057.58 415.14C2074.11 399.026 2096.97 390.97 2126.19 390.97C2144.5 390.97 2162.16 394.632 2179.17 401.956L2166.59 432.229C2153.57 425.719 2140.02 422.464 2125.94 422.464C2109.59 422.464 2096.48 427.957 2086.64 438.943C2076.79 449.93 2071.87 464.7 2071.87 483.255C2071.87 502.623 2075.81 517.435 2083.71 527.688C2091.68 537.861 2103.24 542.947 2118.38 542.947C2126.27 542.947 2134.29 542.133 2142.42 540.506V503.274H2108.61V471.78ZM2213.83 554.544C2213.83 547.708 2215.67 542.54 2219.33 539.041C2222.99 535.542 2228.32 533.792 2235.32 533.792C2242.07 533.792 2247.28 535.582 2250.94 539.163C2254.69 542.744 2256.56 547.871 2256.56 554.544C2256.56 560.973 2254.69 566.059 2250.94 569.803C2247.2 573.465 2241.99 575.296 2235.32 575.296C2228.48 575.296 2223.19 573.506 2219.45 569.925C2215.71 566.263 2213.83 561.136 2213.83 554.544ZM2345.79 574.441C2303.31 574.441 2282.07 551.126 2282.07 504.495C2282.07 481.302 2287.85 463.602 2299.41 451.395C2310.96 439.106 2327.52 432.962 2349.09 432.962C2364.88 432.962 2379.04 436.054 2391.57 442.239L2380.58 471.048C2374.72 468.688 2369.27 466.775 2364.23 465.311C2359.18 463.764 2354.13 462.991 2349.09 462.991C2329.72 462.991 2320.04 476.744 2320.04 504.251C2320.04 530.944 2329.72 544.29 2349.09 544.29C2356.25 544.29 2362.88 543.354 2368.99 541.482C2375.09 539.529 2381.19 536.518 2387.3 532.449V564.31C2381.27 568.134 2375.17 570.779 2368.99 572.244C2362.88 573.709 2355.15 574.441 2345.79 574.441ZM2514.25 531.473C2514.25 545.47 2509.37 556.131 2499.6 563.455C2489.92 570.779 2475.39 574.441 2456.02 574.441C2446.09 574.441 2437.63 573.75 2430.63 572.366C2423.63 571.064 2417.08 569.111 2410.98 566.507V535.745C2417.9 539 2425.67 541.727 2434.29 543.924C2443 546.121 2450.65 547.22 2457.24 547.22C2470.75 547.22 2477.51 543.313 2477.51 535.501C2477.51 532.571 2476.61 530.211 2474.82 528.421C2473.03 526.549 2469.94 524.474 2465.54 522.195C2461.15 519.835 2455.29 517.109 2447.97 514.017C2437.47 509.622 2429.74 505.553 2424.77 501.81C2419.89 498.066 2416.31 493.794 2414.03 488.992C2411.83 484.109 2410.73 478.128 2410.73 471.048C2410.73 458.922 2415.41 449.563 2424.77 442.972C2434.21 436.299 2447.56 432.962 2464.81 432.962C2481.25 432.962 2497.24 436.543 2512.79 443.704L2501.55 470.56C2494.72 467.63 2488.33 465.229 2482.39 463.357C2476.45 461.486 2470.39 460.55 2464.2 460.55C2453.21 460.55 2447.72 463.52 2447.72 469.461C2447.72 472.798 2449.47 475.687 2452.97 478.128C2456.55 480.569 2464.32 484.191 2476.29 488.992C2486.95 493.305 2494.76 497.334 2499.72 501.077C2504.69 504.821 2508.35 509.134 2510.71 514.017C2513.07 518.899 2514.25 524.718 2514.25 531.473ZM2638.52 531.473C2638.52 545.47 2633.63 556.131 2623.87 563.455C2614.18 570.779 2599.66 574.441 2580.29 574.441C2570.36 574.441 2561.9 573.75 2554.9 572.366C2547.9 571.064 2541.35 569.111 2535.25 566.507V535.745C2542.16 539 2549.94 541.727 2558.56 543.924C2567.27 546.121 2574.92 547.22 2581.51 547.22C2595.02 547.22 2601.77 543.313 2601.77 535.501C2601.77 532.571 2600.88 530.211 2599.09 528.421C2597.3 526.549 2594.21 524.474 2589.81 522.195C2585.42 519.835 2579.56 517.109 2572.23 514.017C2561.74 509.622 2554 505.553 2549.04 501.81C2544.16 498.066 2540.58 493.794 2538.3 488.992C2536.1 484.109 2535 478.128 2535 471.048C2535 458.922 2539.68 449.563 2549.04 442.972C2558.48 436.299 2571.83 432.962 2589.08 432.962C2605.52 432.962 2621.51 436.543 2637.05 443.704L2625.82 470.56C2618.99 467.63 2612.6 465.229 2606.66 463.357C2600.72 461.486 2594.65 460.55 2588.47 460.55C2577.48 460.55 2571.99 463.52 2571.99 469.461C2571.99 472.798 2573.74 475.687 2577.24 478.128C2580.82 480.569 2588.59 484.191 2600.55 488.992C2611.21 493.305 2619.03 497.334 2623.99 501.077C2628.96 504.821 2632.62 509.134 2634.98 514.017C2637.34 518.899 2638.52 524.718 2638.52 531.473Z" fill="#0067B8"/>
</svg>
