<svg width="572" height="572" viewBox="0 0 572 572" fill="none" xmlns="http://www.w3.org/2000/svg">
<path d="M28.8948 31.2402C29.5821 30.3438 30.4025 29.6571 31.361 29.0594C39.5152 23.9745 88.4368 0 286 0C450.418 0 511.886 16.605 532.583 25.1075C539.145 27.8032 544.074 32.9692 546.691 39.5631C555.129 60.829 572 123.646 572 286C572 448.32 555.136 511.145 546.696 532.424C544.077 539.027 539.783 544.997 533.368 548.049C514.951 556.812 458.192 572 286 572C140.914 572 77.7791 561.217 50.4803 552.58C35.8147 547.941 24.7289 535.717 20.1477 521.033C11.4023 493.002 0 429.029 0 286C0 80.7589 23.4787 38.3034 28.8948 31.2402Z" fill="#0067B8"/>
<path fill-rule="evenodd" clip-rule="evenodd" d="M290.816 0.00478363C289.22 0.00160217 287.615 0 286 0C256.567 0 230.433 0.53212 207.242 1.45461L239.6 265.705L0.0154266 295.043C0.124329 326.739 0.804962 354.412 1.89304 378.565L249.705 348.219L277.106 571.986C280.036 571.995 283 572 286 572C313.811 572 338.611 571.604 360.725 570.902L332.219 338.114L571.885 308.766C571.961 301.404 572 293.817 572 286C572 263.908 571.688 243.66 571.127 225.108L322.114 255.6L290.816 0.00478363Z" fill="white"/>
</svg>
